<?xml version="1.0" encoding="UTF-8" standalone="no"?>
<!-- Created with Inkscape (http://www.inkscape.org/) -->

<svg
   xmlns:dc="http://purl.org/dc/elements/1.1/"
   xmlns:cc="http://creativecommons.org/ns#"
   xmlns:rdf="http://www.w3.org/1999/02/22-rdf-syntax-ns#"
   xmlns:svg="http://www.w3.org/2000/svg"
   xmlns="http://www.w3.org/2000/svg"
   xmlns:xlink="http://www.w3.org/1999/xlink"
   xmlns:sodipodi="http://sodipodi.sourceforge.net/DTD/sodipodi-0.dtd"
   xmlns:inkscape="http://www.inkscape.org/namespaces/inkscape"
   width="48"
   height="48"
   id="svg3719"
   version="1.1"
   inkscape:version="0.48.2 r9819"
   sodipodi:docname="hail.svg">
  <defs
     id="defs3721">
    <symbol
       viewBox="0 0 250 150"
       id="rainbow">
      <title
         id="title4418">rainbow</title>
    </symbol>
    <symbol
       viewBox="0 0 150 150"
       id="hails">
      <title
         id="title4202">hail</title>
      <use
         id="use4204"
         height="150"
         width="150"
         y="0"
         x="0"
         xlink:href="#cloud" />
      <use
         id="use4206"
         height="150"
         width="150"
         y="0"
         x="0"
         xlink:href="#hail" />
    </symbol>
    <symbol
       viewBox="0 0 150 150"
       id="hail">
      <g
         id="g4163"
         style="fill:#ddffff;stroke:none">
        <circle
           id="circle4165"
           r="13"
           cy="100"
           cx="84"
           d="m 97,100 c 0,7.1797 -5.820298,13 -13,13 -7.179702,0 -13,-5.8203 -13,-13 0,-7.179702 5.820298,-13 13,-13 7.179702,0 13,5.820298 13,13 z"
           sodipodi:cx="84"
           sodipodi:cy="100"
           sodipodi:rx="13"
           sodipodi:ry="13" />
        <circle
           id="circle4167"
           r="13"
           cy="120"
           cx="49"
           d="m 62,120 c 0,7.1797 -5.820298,13 -13,13 -7.179702,0 -13,-5.8203 -13,-13 0,-7.1797 5.820298,-13 13,-13 7.179702,0 13,5.8203 13,13 z"
           sodipodi:cx="49"
           sodipodi:cy="120"
           sodipodi:rx="13"
           sodipodi:ry="13" />
      </g>
    </symbol>
    <symbol
       viewBox="0 0 150 150"
       id="cloud">
      <g
         id="g4141"
         style="fill:none;stroke:#666666;stroke-width:12;stroke-linecap:round">
        <path
           id="path4143"
           d="M 75,55 A 23,23 0 1 0 55,90 l 5,0"
           inkscape:connector-curvature="0" />
        <path
           id="path4145"
           d="m 110,90 5,0 a 22.5,22.5 0 1 0 0,-45"
           inkscape:connector-curvature="0" />
        <path
           id="path4147"
           d="M 105,60 A 25,25 0 1 0 65,45"
           inkscape:connector-curvature="0" />
      </g>
    </symbol>
    <style
       id="css"
       type="text/css">

#cloud2 {stroke:#666; stroke-width:12; stroke-linecap:round; fill:none;}

</style>
  </defs>
  <sodipodi:namedview
     id="base"
     pagecolor="#ffffff"
     bordercolor="#666666"
     borderopacity="1.0"
     inkscape:pageopacity="0.0"
     inkscape:pageshadow="2"
     inkscape:zoom="1.4"
     inkscape:cx="3.5029014"
     inkscape:cy="-150.47622"
     inkscape:document-units="px"
     inkscape:current-layer="layer1"
     showgrid="false"
     inkscape:window-width="1600"
     inkscape:window-height="850"
     inkscape:window-x="0"
     inkscape:window-y="0"
     inkscape:window-maximized="1" />
  <metadata
     id="metadata3724">
    <rdf:RDF>
      <cc:Work
         rdf:about="">
        <dc:format>image/svg+xml</dc:format>
        <dc:type
           rdf:resource="http://purl.org/dc/dcmitype/StillImage" />
        <dc:title />
      </cc:Work>
    </rdf:RDF>
  </metadata>
  <g
     inkscape:label="Layer 1"
     inkscape:groupmode="layer"
     id="layer1"
     transform="translate(0,-1004.3622)">
    <use
       id="use4457"
       height="0.30000001"
       width="0.15000001"
       y="0.72000003"
       x="0.82999998"
       xlink:href="#rainbow"
       transform="matrix(576.04719,0,0,392.45658,3.0664887,569.72024)" />
    <use
       id="use4427"
       height="0.30000001"
       width="0.15000001"
       y="0.0099999998"
       x="0.33000001"
       xlink:href="#hails"
       transform="matrix(410.32955,0,0,193.87714,-146.26224,998.85211)" />
  </g>
</svg>
