<?xml version="1.0" encoding="UTF-8" standalone="no"?>
<!-- Created with Inkscape (http://www.inkscape.org/) -->

<svg
   xmlns:dc="http://purl.org/dc/elements/1.1/"
   xmlns:cc="http://creativecommons.org/ns#"
   xmlns:rdf="http://www.w3.org/1999/02/22-rdf-syntax-ns#"
   xmlns:svg="http://www.w3.org/2000/svg"
   xmlns="http://www.w3.org/2000/svg"
   xmlns:xlink="http://www.w3.org/1999/xlink"
   xmlns:sodipodi="http://sodipodi.sourceforge.net/DTD/sodipodi-0.dtd"
   xmlns:inkscape="http://www.inkscape.org/namespaces/inkscape"
   width="48"
   height="48"
   id="svg3719"
   version="1.1"
   inkscape:version="0.48.2 r9819"
   sodipodi:docname="sleet.svg">
  <defs
     id="defs3721">
    <symbol
       viewBox="0 0 250 150"
       id="rainbow">
      <title
         id="title4418">rainbow</title>
    </symbol>
    <symbol
       viewBox="0 0 150 150"
       id="sleet">
      <title
         id="title4292">sleet</title>
      <use
         id="use4294"
         height="150"
         width="150"
         y="0"
         x="0"
         xlink:href="#cloud" />
      <use
         id="use4296"
         height="150"
         width="150"
         y="0"
         x="0"
         xlink:href="#snow" />
      <use
         id="use4298"
         transform="translate(-35,20)"
         height="150"
         width="150"
         y="0"
         x="0"
         xlink:href="#rain" />
    </symbol>
    <symbol
       viewBox="0 0 150 150"
       id="snow">
      <g
         id="g4179"
         style="stroke:#ddffff;stroke-width:4">
        <line
           id="line4181"
           transform="matrix(0.93969262,-0.34202014,0.34202014,0.93969262,-29.478215,34.820737)"
           y2="101"
           x2="97"
           y1="101"
           x1="71" />
        <line
           id="line4183"
           transform="matrix(0.76604444,0.64278761,-0.64278761,0.76604444,84.573815,-30.364648)"
           y2="101"
           x2="97"
           y1="101"
           x1="71" />
        <line
           id="line4185"
           transform="matrix(-0.17364818,0.98480775,-0.98480775,-0.17364818,198.05203,35.814615)"
           y2="101"
           x2="97"
           y1="101"
           x1="71" />
      </g>
    </symbol>
    <symbol
       viewBox="0 0 150 150"
       id="rain">
      <g
         id="g4170"
         style="fill:#0000aa;stroke:none">
        <path
           id="path4172"
           d="m 102,82 a 55,55 0 0 1 -18,5 13,13 0 1 0 13,13 55,55 0 0 1 5,-18"
           inkscape:connector-curvature="0" />
        <path
           id="path4174"
           d="m 81,90 c 0,0 -7,2 -7,7 a 2,2 0 1 0 4,0 c 0,0 0,-2 3,-7"
           inkscape:connector-curvature="0"
           style="fill:#44ccff" />
        <path
           id="path4176"
           d="m 79,110 c 0,0 10,-3 10,-10 a 3,3 0 0 1 6,0 c 0,0 -1,12 -16,10"
           inkscape:connector-curvature="0"
           style="fill:#1199cc" />
      </g>
    </symbol>
    <symbol
       viewBox="0 0 150 150"
       id="cloud">
      <g
         id="g4141"
         style="fill:none;stroke:#666666;stroke-width:12;stroke-linecap:round">
        <path
           id="path4143"
           d="M 75,55 A 23,23 0 1 0 55,90 l 5,0"
           inkscape:connector-curvature="0" />
        <path
           id="path4145"
           d="m 110,90 5,0 a 22.5,22.5 0 1 0 0,-45"
           inkscape:connector-curvature="0" />
        <path
           id="path4147"
           d="M 105,60 A 25,25 0 1 0 65,45"
           inkscape:connector-curvature="0" />
      </g>
    </symbol>
    <style
       id="css"
       type="text/css">

#cloud2 {stroke:#666; stroke-width:12; stroke-linecap:round; fill:none;}

</style>
  </defs>
  <sodipodi:namedview
     id="base"
     pagecolor="#ffffff"
     bordercolor="#666666"
     borderopacity="1.0"
     inkscape:pageopacity="0.0"
     inkscape:pageshadow="2"
     inkscape:zoom="3.959798"
     inkscape:cx="17.834873"
     inkscape:cy="29.729706"
     inkscape:document-units="px"
     inkscape:current-layer="layer1"
     showgrid="false"
     inkscape:window-width="1600"
     inkscape:window-height="850"
     inkscape:window-x="0"
     inkscape:window-y="0"
     inkscape:window-maximized="1" />
  <metadata
     id="metadata3724">
    <rdf:RDF>
      <cc:Work
         rdf:about="">
        <dc:format>image/svg+xml</dc:format>
        <dc:type
           rdf:resource="http://purl.org/dc/dcmitype/StillImage" />
        <dc:title />
      </cc:Work>
    </rdf:RDF>
  </metadata>
  <g
     inkscape:label="Layer 1"
     inkscape:groupmode="layer"
     id="layer1"
     transform="translate(0,-1004.3622)">
    <use
       id="use4457"
       height="0.30000001"
       width="0.15000001"
       y="0.72000003"
       x="0.82999998"
       xlink:href="#rainbow"
       transform="matrix(576.04719,0,0,392.45658,3.0664887,569.72024)" />
    <use
       id="use4447"
       height="0.30000001"
       width="0.15000001"
       y="0.72000003"
       x="0.0099999998"
       xlink:href="#sleet"
       transform="matrix(402.93108,0,0,196.78234,-14.687102,858.33481)" />
  </g>
</svg>
