<?xml version="1.0" encoding="utf-8" standalone="no"?>
<svg xmlns="http://www.w3.org/2000/svg" version="1.2" baseProfile="tiny"
     xmlns:xlink="http://www.w3.org/1999/xlink"
width="100%" height="100%"
>
<title>weather</title>
<desc>various weather icons: cloudy, hail showers, hail, heavy rain showers, heavy rain, heavy snow showers, heavy-snow, light rain showers, light rain, light snow showers, light snow, sleet showers, sleet, sunny intervals, sunny, thundery showers</desc>

<metadata>

<rdf:RDF xmlns="http://web.resource.org/cc/"
xmlns:dc="http://purl.org/dc/elements/1.1/"
xmlns:cc="http://web.resource.org/cc/"
xmlns:rdf="http://www.w3.org/1999/02/22-rdf-syntax-ns#"
xmlns:foaf="http://xmlns.com/foaf/0.1/" 
xmlns:guis="http://www.peepo.co.uk/temp/gui-schema#">

<Work rdf:about="http://upload.wikimedia.org/wikipedia/commons/5/50/Weather-icons.svg">
	<dc:title xml:lang="en">Weather Icons</dc:title>
	<dc:description xml:lang="en">“various weather icons: cloudy, hail showers, hail, heavy rain showers, heavy rain, heavy snow showers, heavy-snow, light rain showers, light rain, light snow showers, light snow, sleet showers, sleet, sunny intervals, sunny, thundery showers"</dc:description>
	<dc:creator><Agent><dc:title xml:lang="cy"><foaf:Person><foaf:name>Jonathan Chetwynd</foaf:name><foaf:mbox>j.chetwynd@btinternet.com</foaf:mbox></foaf:Person></dc:title></Agent></dc:creator>
	<dc:rights><Agent><dc:title xml:lang="cy"><foaf:Person><foaf:name>Jonathan Chetwynd</foaf:name><foaf:mbox>j.chetwynd@btinternet.com</foaf:mbox></foaf:Person></dc:title></Agent></dc:rights>
	<dc:date>2007/09/07</dc:date>
	<dc:format>image/svg+xml</dc:format>
	<dc:type rdf:resource="http://purl.org/dc/dcmitype/InteractiveResource" />
	<license rdf:resource="http://web.resource.org/cc/PublicDomain" />
</Work>
<License rdf:about="http://web.resource.org/cc/PublicDomain">
   <permits rdf:resource="http://web.resource.org/cc/Reproduction" />
   <permits rdf:resource="http://web.resource.org/cc/Distribution" />
   <permits rdf:resource="http://web.resource.org/cc/DerivativeWorks" />
</License>

</rdf:RDF>

</metadata>

<defs>

<style type="text/css" id="css"><![CDATA[

#cloud2 {stroke:#666; stroke-width:12; stroke-linecap:round; fill:none;}

]]></style>

<symbol id="black-cloud" viewBox="0 0 150 150"  >
<title>cloudy</title>
<g stroke="#333" stroke-width="12" stroke-linecap="round" fill="none">
<path d="M 75 55 A 23 23, 0, 1, 0 55,90 L 115,90 A 21 21, 0, 1, 0 115,45" />
<path d="M 105 60 A 25 25, 0, 1, 0 65,45 "  />
</g>
</symbol>

<symbol id="white-cloud" viewBox="0 0 150 150"  >
<g stroke="#dee" stroke-width="12" stroke-linecap="round" fill="none">
<path d="M 75 55 A 23 23, 0, 1, 0 55,90 L 115,90 A 21 21, 0, 1, 0 115,45" />
<path d="M 105 60 A 25 25, 0, 1, 0 65,45 "  />
</g>
</symbol>

<symbol id="cloud" viewBox="0 0 150 150"  >
<g stroke="#666" stroke-width="12" stroke-linecap="round" fill="none" >
<path d="M 75 55 A 23 23, 0, 1, 0 55,90 L 60,90" />
<path d="M 110,90 115,90 A 21 21, 0, 1, 0 115,45"/>
<path d="M 105 60 A 25 25, 0, 1, 0 65,45" />
</g>
</symbol>

<symbol id="sunQ" viewBox="0 0 150 150"  >
 <g style="stroke-width:7;stroke:#ff0">
<line x1="2" y1="67" x2="19" y2="67" transform="rotate(-20, 55, 67)" />
<line x1="2" y1="67" x2="19" y2="67" transform="rotate(4, 55, 67)" />
<line x1="2" y1="67" x2="19" y2="67" transform="rotate(28, 55, 67)" />
<line x1="2" y1="67" x2="19" y2="67" transform="rotate(52, 55, 67)" />
<line x1="2" y1="67" x2="19" y2="67" transform="rotate(76, 55, 67)" />
  </g>
</symbol>

<symbol id="hail" viewBox="0 0 150 150"  >
 <g stroke="none" fill="#dff">
<circle cx="84" cy="100" r="13" />
<circle cx="49" cy="120" r="13" />
  </g>
</symbol>

<symbol id="rain" viewBox="0 0 150 150"  >
 <g stroke="none" fill="#00a">
<path d="M 102,82 A 55,55 0 0 1  84,87 A 13,13 0, 1, 0 97,100 A 55,55 0 0 1  102,82"/>
<path d="M 81,90 C 81,90 74,92 74,97 A 2,2 0, 1, 0 78,97 C 78,97 78,95 81,90" fill="#4cf"  />
<path d="M 79,110 C 79,110 89,107 89,100 A 3,3 0 0 1 95,100 C 95,100 94,112 79,110" fill="#19c"  />
  </g>
</symbol>

<symbol id="snow" viewBox="0 0 150 150"  >
 <g stroke-width="4" stroke="#dff">
<line x1="71" y1="101" x2="97" y2="101" transform="rotate(-20, 84,101)" />
<line x1="71" y1="101" x2="97" y2="101" transform="rotate(40, 84,101)" />
<line x1="71" y1="101" x2="97" y2="101" transform="rotate(100, 84,101)" />
</g>
</symbol>

<symbol id="thunder" viewBox="0 0 150 150"  >
 <g stroke="none" fill="#dff">
<polygon points="82,110 67,110 82,80 97,80 87,100 102,100 67,150" />
</g>
</symbol>

<symbol id="hail-shower" viewBox="0 0 150 150"  >
<title>hail showers</title>
<use xlink:href="#cloud" x="0" y="0" width="150" height="150" />
<use xlink:href="#hail" x="0" y="0" width="150" height="150" />
<use xlink:href="#sunQ" x="0" y="0" width="150" height="150" />
</symbol>

<symbol id="hails" viewBox="0 0 150 150"  >
<title>hail</title>
<use xlink:href="#cloud" x="0" y="0" width="150" height="150" />
<use xlink:href="#hail" x="0" y="0" width="150" height="150" />
</symbol>

<symbol id="heavy-rain-shower" viewBox="0 0 150 150"  >
<title>heavy rain showers</title>
<use xlink:href="#cloud" x="0" y="0" width="150" height="150" />
<use xlink:href="#rain" x="0" y="0" width="150" height="150" />
<use xlink:href="#rain" x="0" y="0" width="150" height="150" transform="translate(-35,20)"/>
<use xlink:href="#sunQ" x="0" y="0" width="150" height="150" />
</symbol>

<symbol id="heavy-rain" viewBox="0 0 150 150"  >
<title>heavy rain</title>
<use xlink:href="#cloud" x="0" y="0" width="150" height="150" />
<use xlink:href="#rain" x="0" y="0" width="150" height="150" />
<use xlink:href="#rain" x="0" y="0" width="150" height="150" transform="translate(-35,20)"/>
</symbol>

<symbol id="heavy-snow-shower" viewBox="0 0 150 150"  >
<title>heavy snow showers</title>
<use xlink:href="#cloud" x="0" y="0" width="150" height="150" />
<use xlink:href="#snow" x="0" y="0" width="150" height="150" />
<use xlink:href="#snow" x="0" y="0" width="150" height="150" transform="translate(-35,20)"/>
<use xlink:href="#sunQ" x="0" y="0" width="150" height="150" />
</symbol>

<symbol id="heavy-snow" viewBox="0 0 150 150"  >
<title>heavy snow</title>
<use xlink:href="#cloud" x="0" y="0" width="150" height="150" />
<use xlink:href="#snow" x="0" y="0" width="150" height="150" />
<use xlink:href="#snow" x="0" y="0" width="150" height="150" transform="translate(-35,20)"/>
</symbol>

<symbol id="light-rain-shower" viewBox="0 0 150 150"  >
<title>light rain showers</title>
<use xlink:href="#cloud" x="0" y="0" width="150" height="150" />
<use xlink:href="#rain" x="0" y="0" width="150" height="150" />
<use xlink:href="#sunQ" x="0" y="0" width="150" height="150" />
</symbol>

<symbol id="light-rain" viewBox="0 0 150 150"  >
<title>light rain</title>
<use xlink:href="#cloud" x="0" y="0" width="150" height="150" />
<use xlink:href="#rain" x="0" y="0" width="150" height="150" />
</symbol>

<symbol id="light-snow-shower" viewBox="0 0 150 150"  >
<title>light snow showers</title>
<use xlink:href="#cloud" x="0" y="0" width="150" height="150" />
<use xlink:href="#snow" x="0" y="0" width="150" height="150" />
<use xlink:href="#sunQ" x="0" y="0" width="150" height="150" />
</symbol>

<symbol id="light-snow" viewBox="0 0 150 150"  >
<title>light snow</title>
<use xlink:href="#cloud" x="0" y="0" width="150" height="150" />
<use xlink:href="#snow" x="0" y="0" width="150" height="150" />
</symbol>

<symbol id="sleet-shower" viewBox="0 0 150 150"  >
<title>sleet showers</title>
<use xlink:href="#cloud" x="0" y="0" width="150" height="150" />
<use xlink:href="#snow" x="0" y="0" width="150" height="150" />
<use xlink:href="#rain" x="0" y="0" width="150" height="150" transform="translate(-35,20)"/>
<use xlink:href="#sunQ" x="0" y="0" width="150" height="150" />
</symbol>

<symbol id="sleet" viewBox="0 0 150 150"  >
<title>sleet</title>
<use xlink:href="#cloud" x="0" y="0" width="150" height="150" />
<use xlink:href="#snow" x="0" y="0" width="150" height="150" />
<use xlink:href="#rain" x="0" y="0" width="150" height="150" transform="translate(-35,20)"/>
</symbol>

<symbol id="sunny-intervals" viewBox="0 0 150 150"  >
<title>sunny intervals</title>
<use xlink:href="#white-cloud" x="0" y="0" width="150" height="150" />
<use xlink:href="#sunQ" x="0" y="0" width="150" height="150" />
</symbol>

<symbol id="sunny" viewBox="0 0 150 150"  >
<title>sunny</title>
 <g style="stroke-width:7;stroke:#ff0">
<line x1="22" y1="75" x2="39" y2="75" transform="rotate(-20, 75, 75)" />
<line x1="22" y1="75" x2="39" y2="75" transform="rotate(4, 75, 75)" />
<line x1="22" y1="75" x2="39" y2="75" transform="rotate(28, 75, 75)" />
<line x1="22" y1="75" x2="39" y2="75" transform="rotate(52, 75, 75)" />
<line x1="22" y1="75" x2="39" y2="75" transform="rotate(76, 75, 75)" />
<line x1="22" y1="75" x2="39" y2="75" transform="rotate(100, 75, 75)" />
<line x1="22" y1="75" x2="39" y2="75" transform="rotate(124, 75, 75)" />
<line x1="22" y1="75" x2="39" y2="75" transform="rotate(148, 75, 75)" />
<line x1="22" y1="75" x2="39" y2="75" transform="rotate(172, 75, 75)" />
<line x1="22" y1="75" x2="39" y2="75" transform="rotate(196, 75, 75)" />
<line x1="22" y1="75" x2="39" y2="75" transform="rotate(220, 75, 75)" />
<line x1="22" y1="75" x2="39" y2="75" transform="rotate(244, 75, 75)" />
<line x1="22" y1="75" x2="39" y2="75" transform="rotate(268, 75, 75)" />
<line x1="22" y1="75" x2="39" y2="75" transform="rotate(292, 75, 75)" />
<line x1="22" y1="75" x2="39" y2="75" transform="rotate(316, 75, 75)" />

<circle cx="75" cy="75" r="25" fill="#ff0"/>
  </g>
</symbol>

<symbol id="thundery-shower" viewBox="0 0 150 150"  >
<title>thundery showers</title>
<use xlink:href="#cloud" x="0" y="0" width="150" height="150" />
<use xlink:href="#thunder" x="0" y="0" width="150" height="150" />
<use xlink:href="#sunQ" x="0" y="0" width="150" height="150" />
</symbol>

<symbol id="weather" viewBox="0 0 150 150"  >
<title>weather</title>
 <g stroke-width="7" stroke="#ff0" transform="translate(-10,-10)">
<line x1="22" y1="75" x2="39" y2="75" transform="rotate(-20, 75, 75)" />
<line x1="22" y1="75" x2="39" y2="75" transform="rotate(4, 75, 75)" />
<line x1="22" y1="75" x2="39" y2="75" transform="rotate(28, 75, 75)" />
<line x1="22" y1="75" x2="39" y2="75" transform="rotate(52, 75, 75)" />
<line x1="22" y1="75" x2="39" y2="75" transform="rotate(76, 75, 75)" />
<line x1="22" y1="75" x2="39" y2="75" transform="rotate(316, 75, 75)" />

<path d="M 75 46 A 29 29 80 0 0 57 98 L 75 75" fill="#ff0" stroke="none" />
  </g>

<g stroke="#666" stroke-width="12" stroke-linecap="round" fill="none" transform="translate(-10,10)">
<path d="M 105,90 L 115,90 A 21 21, 0, 1, 0 115,45" />
<path d="M 115,90 L 115,90 A 21 21, 0, 1, 0 115,45" transform="translate(-25,-30)"/>
<use xlink:href="#rain" x="0" y="0" width="150" height="150" transform="translate(10,10) scale(0.8) " />
<use xlink:href="#rain" x="0" y="0" width="150" height="150" transform="translate(-15,35) scale(0.8) "/>
</g>
</symbol>

<radialGradient id="rainbowG" cx="50%" cy="50%" r="55.7%" >
<stop offset="0%" stop-color="#bbb"/>
<stop offset="77.5%" stop-color="#b4b"/>
<stop offset="80%" stop-color="#a4e"/>
<stop offset="82%" stop-color="#74a"/>
<stop offset="83%" stop-color="#66a"/>
<stop offset="84.5%" stop-color="#55f"/>
<stop offset="85%" stop-color="#55f"/>
<stop offset="86.5%" stop-color="#0ee"/>
<stop offset="89%" stop-color="#0ee"/>
<stop offset="89.5%" stop-color="#0f7"/>
<stop offset="92.5%" stop-color="#f9f900"/>
<stop offset="93.1%" stop-color="#f9f900"/>
<stop offset="95%" stop-color="#fa0"/>
<stop offset="95%" stop-color="#fa0"/>
<stop offset="98%" stop-color="#ea0000"/>
<stop offset="99%" stop-color="#ea0033"/>
<stop offset="100%" stop-color="#ea00aa"/>
</radialGradient>
<symbol id="rainbow" viewBox="0 0 250 150" >
<title>rainbow</title>
</symbol>

</defs>

 <rect x="0" y="0" width="100%" height="100%" fill="#3be" stroke="none" id="menuBG" />
<g >

<use xlink:href="#black-cloud" x="1%" y="1%" width="15%" height="30%" />
<use xlink:href="#hail-shower" x="17%" y="1%" width="15%" height="30%"   />
<use xlink:href="#hails" x="33%" y="1%" width="15%" height="30%" />
<use xlink:href="#heavy-rain-shower" x="51%" y="1%" width="15%" height="30%" />
<use xlink:href="#heavy-rain" x="67%" y="1%" width="15%" height="30%" />
<use xlink:href="#heavy-snow-shower" x="83%" y="1%" width="15%" height="30%" />

<use xlink:href="#heavy-snow" x="1%" y="36%" width="15%" height="30%" />
<use xlink:href="#light-rain-shower" x="17%" y="36%" width="15%" height="30%"   />
<use xlink:href="#light-rain" x="33%" y="36%" width="15%" height="30%" />
<use xlink:href="#light-snow-shower" x="51%" y="36%" width="15%" height="30%" />
<use xlink:href="#light-snow" x="67%" y="36%" width="15%" height="30%" />
<use xlink:href="#sleet-shower" x="83%" y="36%" width="15%" height="30%" />

<use xlink:href="#sleet" x="1%" y="72%" width="15%" height="30%" />
<use xlink:href="#sunny-intervals" x="17%" y="72%" width="15%" height="30%"   />
<use xlink:href="#sunny" x="33%" y="72%" width="15%" height="30%" />
<use xlink:href="#thundery-shower" x="51%" y="72%" width="15%" height="30%" />
<use xlink:href="#weather" x="67%" y="72%" width="15%" height="30%" />
<use xlink:href="#rainbow" x="83%" y="72%" width="15%" height="30%" />
</g>



</svg>